<?xml version="1.0" encoding="utf-8"?>
<!-- Generator: Adobe Illustrator 23.0.5, SVG Export Plug-In . SVG Version: 6.00 Build 0)  -->
<svg version="1.1" id="Layer_14" xmlns="http://www.w3.org/2000/svg" xmlns:xlink="http://www.w3.org/1999/xlink" x="0px" y="0px"
	 viewBox="0 0 85.7 60.8" style="enable-background:new 0 0 85.7 60.8;" xml:space="preserve">
<style type="text/css">
	.st0{fill:#C13A35;}
</style>
<path class="st0" d="M85.7,25.2c0,3.1,0,6.3,0,9.4c0,0.2-0.1,0.4-0.1,0.6c-0.2,3.1-0.4,6.2-0.6,9.4c-0.2,4.1-1.6,7.7-4.2,10.9
	c-1.8,2.3-4.1,3.9-7.1,4.3c-2,0.2-4.1,0.3-6.1,0.4c-6,0.2-12.1,0.5-18.1,0.6c-12.3,0.2-24.7-0.1-37-0.9c-2-0.1-3.8-0.7-5.4-1.9
	c-3.4-2.6-5.4-6.1-6-10.2C0.5,43,0.3,38.3,0.1,33.5c-0.3-5.9,0.2-11.8,0.6-17.6C1,11.5,2.5,7.7,5.4,4.5c1.9-2,4.1-3.3,7-3.4
	c2.1-0.1,4.2-0.3,6.3-0.4c4.9-0.2,9.8-0.4,14.8-0.5c13.7-0.2,27.4,0.1,41,1.1c2.3,0.2,4.3,1.1,6,2.7c2.5,2.4,3.8,5.5,4.2,8.8
	c0.4,3.2,0.6,6.5,0.8,9.8C85.6,23.4,85.7,24.3,85.7,25.2z M32.2,45.6c8.9-5.1,17.8-10.2,26.8-15.3C50,25.1,41.1,20,32.2,14.9
	C32.2,25.1,32.2,35.3,32.2,45.6z"/>
</svg>
