<?xml version="1.0" encoding="utf-8"?>
<!-- Generator: Adobe Illustrator 23.0.5, SVG Export Plug-In . SVG Version: 6.00 Build 0)  -->
<svg version="1.1" id="Layer_5" xmlns="http://www.w3.org/2000/svg" xmlns:xlink="http://www.w3.org/1999/xlink" x="0px" y="0px"
	 viewBox="0 0 496 497.9" style="enable-background:new 0 0 496 497.9;" xml:space="preserve">
<style type="text/css">
	.st0{fill:#A6C632;}
</style>
<g>
	<path class="st0" d="M248,129.9c0-5.4,0.5-10.8,1.2-16H48v64h210C251.6,163.2,248,147,248,129.9L248,129.9z"/>
</g>
<g>
	<path d="M168,193.9c-57.3,0-104,46.7-104,104s46.7,104,104,104s104-46.7,104-104S225.3,193.9,168,193.9z M168,385.9
		c-8.6,0-17.8-12.2-24.1-32h48.1C185.8,373.7,176.6,385.9,168,385.9L168,385.9z M139.8,337.9c-2-9.7-3.3-20.4-3.7-32h63.7
		c-0.4,11.6-1.7,22.3-3.7,32H139.8z M80.4,305.9h39.8c0.4,11.4,1.5,22.1,3.3,32H89.7C84.7,328.2,81.4,317.4,80.4,305.9z M168,209.9
		c8.6,0,17.8,12.2,24.1,32h-48.1C150.2,222.2,159.4,209.9,168,209.9L168,209.9z M196.2,257.9c2,9.7,3.3,20.4,3.7,32h-63.7
		c0.4-11.6,1.7-22.3,3.7-32H196.2z M120.2,289.9H80.4c1-11.4,4.3-22.2,9.3-32h33.7C121.6,267.8,120.5,278.6,120.2,289.9L120.2,289.9
		z M215.8,305.9h39.8c-1,11.4-4.3,22.2-9.3,32h-33.7C214.4,328,215.5,317.3,215.8,305.9z M215.8,289.9c-0.4-11.4-1.5-22.1-3.3-32
		h33.7c5,9.8,8.3,20.6,9.3,32H215.8z M235.8,241.9h-27c-2.9-10.4-6.7-19.4-11.1-26.7C212.7,220.6,225.9,229.9,235.8,241.9
		L235.8,241.9z M138.3,215.2c-4.4,7.4-8.2,16.4-11.1,26.7h-27C110.1,229.9,123.3,220.6,138.3,215.2L138.3,215.2z M100.2,353.9h27
		c2.9,10.4,6.7,19.4,11.1,26.7C123.3,375.3,110.1,366,100.2,353.9L100.2,353.9z M197.7,380.7c4.4-7.4,8.2-16.4,11.1-26.7h27
		C225.9,366,212.7,375.3,197.7,380.7L197.7,380.7z"/>
	<path d="M368,1.9c-53.6,0-99.5,33.2-118.6,80H40c-22.1,0-40,17.9-40,40v336c0,22.1,17.9,40,40,40h296v-40v-40V253.7
		c10.2,2.7,20.9,4.2,32,4.2c70.6,0,128-57.4,128-128S438.6,1.9,368,1.9z M368,17.9c61.8,0,112,50.2,112,112c0,23.9-7.6,46-20.4,64.2
		c-5.4-10.7-15.3-18.8-27.7-21.3l-28.3-5.7c-4-1.2-7.3-3.8-9.4-7.3c4.4-3.8,8-8.5,10.4-13.9h3.4c13.2,0,24-10.8,24-24
		c0-3.2-0.7-6.2-1.8-9c6.2-6,9.8-14.2,9.8-23c0-12.8-7.4-24-18.9-29.1c-5.5-12.3-17.7-20.2-31.9-18.8c-11.7-10.4-30.7-10.4-42.4,0
		c-14.2-1.4-26.4,6.5-31.9,18.8C303.4,65.9,296,77.2,296,89.9c0,8.8,3.6,17.1,9.8,23c-1.1,2.8-1.8,5.8-1.8,9c0,13.2,10.8,24,24,24
		h3.4c2.4,5.4,6,10.1,10.4,14c-2,3.5-5.2,6.1-8.8,7.2l-28.9,5.8c-12.4,2.5-22.3,10.6-27.7,21.3C263.6,176,256,153.8,256,129.9
		C256,68.2,306.2,17.9,368,17.9L368,17.9z M328,129.9c-4.4,0-8-3.6-8-8s3.6-8,8-8V129.9z M334.2,97.9H328c-4.2,0-8.1,1.2-11.5,3.1
		c-2.8-2.9-4.5-6.9-4.5-11.1c0-7,4.6-13.2,11.4-15.2l4.1-1.2l1.2-4.1c2.1-6.8,8.2-11.4,15.2-11.4c1.1,0,2.3,0.2,3.7,0.5l4.8,1.2
		l3.2-3.8c6.2-7.4,18.3-7.4,24.4,0l3.2,3.8l4.8-1.2c1.4-0.3,2.6-0.5,3.7-0.5c7,0,13.2,4.6,15.2,11.4l1.2,4.1l4.1,1.2
		c6.8,2,11.4,8.2,11.4,15.2c0,4.2-1.7,8.1-4.5,11.1c-3.4-1.9-7.3-3.1-11.5-3.1h-8h-14.1c-10.5,0-20.9-2.5-30.3-7.2l-1.7-0.8H352
		C344.9,89.9,338.6,93.1,334.2,97.9L334.2,97.9z M408,113.9c4.4,0,8,3.6,8,8s-3.6,8-8,8V113.9z M344,129.9v-16
		c0-3.9,2.8-7.1,6.5-7.8c11,5.1,23.2,7.8,35.4,7.8h6.1v16c0,13.2-10.8,24-24,24C354.8,153.9,344,143.2,344,129.9z M355.7,167.8
		c3.9,1.3,8,2.1,12.3,2.1c4.3,0,8.4-0.9,12.3-2.1c0.7,1.1,1.4,2.2,2.1,3.2L368,189.1L353.5,171C354.3,170,355,168.9,355.7,167.8z
		 M320,481.9H40c-13.2,0-24-10.8-24-24s10.8-24,24-24h248v16H32v16h272v-32h16v24V481.9z M320,417.9H40c-9,0-17.3,3.1-24,8.2V121.9
		c0-13.2,10.8-24,24-24h204.2c-2.7,10.2-4.2,20.9-4.2,32c0,53.6,33.2,99.5,80,118.6V417.9z M368,241.9c-31.1,0-59.3-12.8-79.6-33.3
		c1.5-9.9,8.8-18,18.9-20l29.6-6c1.5-0.4,2.9-1,4.2-1.6l27,33.7l27-33.8c1.5,0.7,3.1,1.3,4.8,1.8l28.9,5.8c10,2,17.4,10.1,18.9,20
		C427.3,229.2,399.1,241.9,368,241.9z"/>
	<path d="M32,385.9h16v16H32V385.9z"/>
	<path d="M32,321.9h16v16H32V321.9z"/>
	<path d="M32,353.9h16v16H32V353.9z"/>
	<path d="M288,321.9h16v16h-16V321.9z"/>
	<path d="M288,353.9h16v16h-16V353.9z"/>
	<path d="M288,385.9h16v16h-16V385.9z"/>
</g>
</svg>
