<?xml version="1.0" encoding="utf-8"?>
<!-- Generator: Adobe Illustrator 23.0.5, SVG Export Plug-In . SVG Version: 6.00 Build 0)  -->
<svg version="1.1" id="Layer_5" xmlns="http://www.w3.org/2000/svg" xmlns:xlink="http://www.w3.org/1999/xlink" x="0px" y="0px"
	 viewBox="0 0 496 497.6" style="enable-background:new 0 0 496 497.6;" xml:space="preserve">
<style type="text/css">
	.st0{fill:#A6C632;}
</style>
<path class="st0" d="M226.4,401.3H45.6c-7.5,0-13.6-6.1-13.6-13.6V270.9c0-7.5,6.1-13.6,13.6-13.6h180.8c7.5,0,13.6,6.1,13.6,13.6
	v116.8C240,395.2,233.9,401.3,226.4,401.3z"/>
<g>
	<path d="M128,33.6h48v16h-48V33.6z"/>
	<path d="M96,33.6h16v16H96V33.6z"/>
	<path d="M52.7,417.6H48c-8.8,0-16,7.2-16,16v16c0,8.8,7.2,16,16,16h4.7c4.2,0,8.3-1.7,11.3-4.7l19.3-19.3L64,422.3
		C61,419.3,56.9,417.6,52.7,417.6z M52.7,449.6H48v-16h4.7l8,8L52.7,449.6z"/>
	<path d="M144,417.6h-16c-8.8,0-16,7.2-16,16v16c0,8.8,7.2,16,16,16h16c8.8,0,16-7.2,16-16v-16C160,424.8,152.8,417.6,144,417.6z
		 M128,449.6v-16h16l0,16H128z"/>
	<path d="M224,417.6h-4.7c-4.2,0-8.3,1.7-11.3,4.7l-19.3,19.3l19.3,19.3c3,3,7.1,4.7,11.3,4.7h4.7c8.8,0,16-7.2,16-16v-16
		C240,424.8,232.8,417.6,224,417.6z M219.3,449.6l-8-8l8-8h4.7l0,16H219.3z"/>
	<path d="M360,225.6c-32.4,0-63.5,11.8-88,32.7V103.2l13.3,14l5.8-6.1C309.5,91.9,334,81.2,360,81.2s50.5,10.6,68.9,29.9l5.8,6.1
		l32.4-33.9l-5.3-5.5C434.6,49.3,398.5,33.6,360,33.6c0,0,0,0,0,0c-32.3,0-62.9,11.2-88,31.6V41.6c0-22.1-17.9-40-40-40H40
		c-22.1,0-40,17.9-40,40v416c0,22.1,17.9,40,40,40h192c19.7,0,36.1-14.4,39.3-33.3c24.6,21.2,56,33.3,88.7,33.3c75,0,136-61,136-136
		S435,225.6,360,225.6z M360,49.6c31.6,0,61.4,12,84.8,33.8l-10.3,10.8c-20.7-18.8-46.8-29-74.5-29s-53.8,10.2-74.5,29l-10.3-10.8
		C298.6,61.6,328.4,49.6,360,49.6z M360,481.6c-17.9,0-34-19.1-44.4-48h88.7C394,462.5,377.9,481.6,360,481.6L360,481.6z
		 M310.7,417.6c-3.7-14.6-6-30.9-6.5-48h111.6c-0.6,17.1-2.8,33.4-6.5,48H310.7z M360,241.6c17.9,0,34,19.1,44.4,48h-88.7
		C326,260.7,342.1,241.6,360,241.6L360,241.6z M409.3,305.6c3.7,14.6,6,30.9,6.5,48H304.2c0.6-17.1,2.8-33.4,6.5-48H409.3z
		 M288.2,353.6H272v-48h22.2C290.8,320.3,288.7,336.5,288.2,353.6z M272,369.6h16.2c0.5,17.1,2.6,33.3,6,48H272V369.6z M431.8,369.6
		h47.8c-1.1,17.2-5.9,33.5-13.5,48h-40.3C429.2,402.9,431.3,386.7,431.8,369.6L431.8,369.6z M431.8,353.6c-0.5-17.1-2.6-33.3-6-48
		H466c7.7,14.5,12.4,30.8,13.5,48H431.8z M455.8,289.6h-34.5c-5.3-16.2-12.2-30.1-20.5-40.7C422.9,256.9,441.9,271.2,455.8,289.6z
		 M319.2,249c-8.3,10.6-15.2,24.5-20.5,40.6H272v-9.2C285.2,266.2,301.4,255.5,319.2,249z M232,481.6H40c-13.2,0-24-10.8-24-24v-416
		c0-13.2,10.8-24,24-24h192c13.2,0,24,10.8,24,24v38.4l-3.1,3.2l3.1,3.2v371.1C256,470.9,245.2,481.6,232,481.6z M272,442.8v-9.2
		h26.7c5.2,16.2,12.2,30,20.5,40.6C301.4,467.8,285.2,457.1,272,442.8z M400.8,474.3c8.3-10.6,15.3-24.5,20.5-40.7h34.5
		C441.9,452.1,422.9,466.3,400.8,474.3z"/>
	<path d="M336,185.6c0,13.2,10.8,24,24,24s24-10.8,24-24s-10.8-24-24-24S336,172.4,336,185.6z M368,185.6c0,4.4-3.6,8-8,8
		s-8-3.6-8-8s3.6-8,8-8S368,181.2,368,185.6z"/>
	<path d="M393.6,165.2l33.4-35.2l-5.2-5.5c-16.5-17.4-38.4-26.9-61.8-26.9s-45.3,9.6-61.8,26.9L293,130l33.4,35.2l5.8-6.1
		c7.4-7.8,17.3-12.2,27.8-12.2s20.4,4.3,27.8,12.2L393.6,165.2z M326.8,142.5l-11.5-12.1c12.6-10.8,28.2-16.7,44.7-16.7
		s32.1,5.9,44.7,16.7l-11.5,12.1C383.7,135,372.1,131,360,131S336.4,135,326.8,142.5L326.8,142.5z"/>
	<path d="M112,209.6h96v-80h-48v-32H64v80h48V209.6z M192,193.6h-64v-48h64V193.6z M80,161.6v-48h64v16h-32v32H80z"/>
	<path d="M64,225.6h16v16H64V225.6z"/>
	<path d="M96,225.6h112v16H96V225.6z"/>
	<path d="M64,257.6h144v16H64V257.6z"/>
	<path d="M208,369.6v-80h-80v80H208z M144,305.6h48v48h-48V305.6z"/>
	<path d="M64,289.6h48v16H64V289.6z"/>
	<path d="M64,321.6h48v16H64V321.6z"/>
	<path d="M64,353.6h48v16H64V353.6z"/>
</g>
</svg>
