<?xml version="1.0" encoding="utf-8"?>
<!-- Generator: Adobe Illustrator 23.0.5, SVG Export Plug-In . SVG Version: 6.00 Build 0)  -->
<svg version="1.1" id="Layer_5" xmlns="http://www.w3.org/2000/svg" xmlns:xlink="http://www.w3.org/1999/xlink" x="0px" y="0px"
	 viewBox="0 0 496 498" style="enable-background:new 0 0 496 498;" xml:space="preserve">
<style type="text/css">
	.st0{fill:#A6C632;}
</style>
<g>
	<g>
		<path class="st0" d="M376,194h-96c-13.2,0-24-10.8-24-24v-64c0-13.2,10.8-24,24-24h96c13.2,0,24,10.8,24,24v64
			C400,183.3,389.2,194,376,194z"/>
	</g>
</g>
<g>
	<g>
		<path class="st0" d="M128,322H48v-40h80V322z"/>
	</g>
</g>
<g>
	<g>
		<path class="st0" d="M128,258H48v-40h80V258z"/>
	</g>
</g>
<g>
	<path d="M456,2H200c-22.1,0-40,17.9-40,40v104h-40.2c-5.8-7.6-14.1-13.2-23.8-15.2V82h50.2l-20-80H49.8l-20,80H80v48.8
		c-9.7,2-18,7.6-23.8,15.2H0v208h160v104c0,22.1,17.9,40,40,40h256c22.1,0,40-17.9,40-40V42C496,20,478.1,2,456,2z M62.2,18h51.5
		l12,48H50.2L62.2,18z M200,18h256c10.4,0,19.2,6.7,22.5,16H177.5C180.8,24.8,189.6,18,200,18L200,18z M176,130V50h304v80h-80v16h80
		v272H176V146h80v-16H176z M160,274H16v-48h144V274z M64,170c0-13.2,10.8-24,24-24s24,10.8,24,24v8H64V170z M48.8,162
		c-0.5,2.6-0.8,5.3-0.8,8v24h80v-24c0-2.7-0.3-5.4-0.8-8H160v48H16v-48H48.8z M16,338v-48h144v48H16z M456,482H200
		c-13.2,0-24-10.8-24-24v-24h304v24C480,471.3,469.2,482,456,482z"/>
	<path d="M208,266v112c0,13.2,10.8,24,24,24h216v-24v-24V242H232C218.8,242,208,252.8,208,266z M432,386H232c-4.4,0-8-3.6-8-8
		s3.6-8,8-8h200v8V386z M432,354H232c-2.8,0-5.5,0.6-8,1.5V266c0-4.4,3.6-8,8-8h200V354z"/>
</g>
</svg>
