<?xml version="1.0" standalone="no"?>
<!DOCTYPE svg PUBLIC "-//W3C//DTD SVG 20010904//EN"
 "http://www.w3.org/TR/2001/REC-SVG-20010904/DTD/svg10.dtd">
<svg version="1.0" xmlns="http://www.w3.org/2000/svg"
 width="162.000000pt" height="162.000000pt" viewBox="0 0 162.000000 162.000000"
 preserveAspectRatio="xMidYMid meet">
<metadata>
Created by potrace 1.11, written by Peter Selinger 2001-2013
</metadata>
<g transform="translate(0.000000,162.000000) scale(0.100000,-0.100000)"
fill="#000000" stroke="none">
<path d="M0 1215 l0 -65 35 0 c32 0 35 2 35 30 0 28 2 30 40 30 22 1 128 1
235 1 107 0 201 0 208 -1 10 0 12 -67 12 -315 l0 -315 -70 0 c-68 0 -71 -1
-98 -35 l-28 -36 132 3 133 3 0 380 0 380 -317 3 -317 2 0 -65z"/>
<path d="M709 1148 c-4 -37 -4 -195 -1 -210 4 -15 15 -18 59 -18 44 0 58 5 78
25 28 27 30 40 12 75 -9 17 -11 32 -4 47 14 32 0 72 -29 83 -37 14 -114 13
-115 -2z m105 -24 c9 -3 16 -17 16 -30 0 -33 -25 -43 -90 -35 -5 0 -10 17 -10
36 0 33 2 35 34 35 19 0 41 -3 50 -6z m18 -119 c16 -36 -4 -55 -58 -55 l-44 0
0 40 0 40 45 0 c39 0 47 -4 57 -25z"/>
<path d="M920 1140 c-21 -21 -26 -54 -21 -162 2 -45 82 -74 131 -48 26 14 40
65 36 134 -2 47 -7 63 -26 78 -31 25 -94 24 -120 -2z m108 -28 c13 -17 16 -91
5 -130 -6 -26 -41 -43 -71 -35 -34 8 -42 48 -33 159 1 16 43 33 66 27 11 -3
26 -12 33 -21z"/>
<path d="M1124 1139 c-14 -15 -20 -40 -22 -94 -4 -68 -2 -76 21 -99 19 -19 36
-26 64 -26 64 1 77 19 82 111 3 73 1 83 -20 105 -30 32 -97 34 -125 3z m104
-22 c8 -9 14 -38 14 -76 1 -70 -13 -93 -56 -93 -45 0 -56 18 -56 93 0 58 3 70
21 83 24 16 56 13 77 -7z"/>
<path d="M1314 1043 c1 -83 5 -117 14 -120 9 -4 12 11 12 52 0 56 0 56 28 53
21 -2 32 -14 52 -52 23 -46 50 -71 50 -48 0 6 -14 37 -31 71 l-31 60 31 44
c27 40 31 57 11 57 -4 0 -24 -25 -44 -56 -20 -30 -42 -54 -49 -51 -7 2 -13 26
-15 55 -2 34 -7 52 -16 52 -10 0 -13 -28 -12 -117z"/>
<path d="M1 718 c0 -357 1 -381 16 -360 l17 24 18 -24 c17 -23 18 -22 18 65
l0 87 100 0 c55 0 102 0 105 0 22 -2 90 51 106 82 32 63 23 151 -20 195 l-27
28 19 27 c39 53 39 144 0 197 -37 50 -75 61 -220 61 l-133 0 1 -382z m276 303
c23 -12 44 -69 38 -101 -13 -65 -42 -79 -159 -78 l-86 1 0 97 0 97 93 -2 c51
-1 103 -7 114 -14z m-8 -247 c38 -8 61 -46 61 -99 0 -79 -36 -101 -165 -101
l-90 1 -3 103 -3 102 84 0 c47 0 99 -3 116 -6z"/>
<path d="M708 858 c-10 -31 -2 -222 9 -225 8 -3 13 11 15 39 l3 43 48 5 c51 6
74 23 77 55 7 68 -19 95 -94 95 -34 0 -55 -5 -58 -12z m111 -27 c15 -10 18
-58 4 -72 -9 -9 -39 -13 -75 -10 -14 1 -18 10 -18 46 l0 45 38 0 c20 0 43 -4
51 -9z"/>
<path d="M898 863 c-6 -13 -1 -223 5 -229 14 -14 24 9 22 51 -2 45 -2 45 31
45 30 0 36 -5 59 -50 14 -27 30 -50 36 -50 12 0 5 29 -18 73 -13 26 -13 31 3
48 23 25 22 73 -1 99 -14 16 -31 20 -76 20 -32 0 -59 -3 -61 -7z m124 -48 c9
-21 9 -29 -3 -41 -15 -14 -88 -26 -90 -15 -5 26 -6 67 -2 74 2 4 22 7 44 7 33
0 41 -4 51 -25z"/>
<path d="M1099 868 c-5 -12 -4 -221 1 -229 9 -13 136 -8 133 6 -2 6 -27 11
-57 13 l-54 3 1 38 1 39 44 0 c48 1 57 5 48 21 -4 6 -24 8 -46 6 -22 -2 -41
-1 -41 3 -1 4 -3 22 -5 40 l-2 32 54 0 c41 0 54 4 54 15 0 12 -14 15 -65 15
-36 0 -65 -1 -66 -2z"/>
<path d="M1280 848 c-14 -15 -19 -31 -16 -50 6 -41 12 -46 71 -59 56 -12 72
-29 59 -63 -3 -9 -11 -16 -18 -17 -6 0 -19 -2 -30 -4 -10 -2 -29 7 -43 21 -27
27 -43 31 -43 10 0 -25 50 -56 89 -56 52 0 85 32 77 74 -8 38 -26 53 -76 61
-46 8 -64 26 -55 55 10 30 70 31 96 0 10 -11 21 -15 29 -10 10 6 7 14 -13 34
-34 34 -97 36 -127 4z"/>
<path d="M1476 847 c-17 -17 -22 -31 -19 -50 7 -35 22 -46 80 -61 38 -10 49
-17 51 -35 5 -31 -8 -42 -49 -43 -23 -1 -37 5 -47 20 -15 23 -42 30 -42 12 0
-6 11 -22 25 -35 51 -52 145 -23 145 45 0 34 -26 56 -80 65 -35 6 -60 21 -60
36 0 5 9 18 20 29 23 23 54 19 86 -10 31 -30 43 -6 13 26 -31 33 -91 33 -123
1z"/>
</g>
</svg>
