<?xml version="1.0" encoding="utf-8"?>
<!-- Generator: Adobe Illustrator 23.0.5, SVG Export Plug-In . SVG Version: 6.00 Build 0)  -->
<svg version="1.1" id="Capa_1" xmlns="http://www.w3.org/2000/svg" xmlns:xlink="http://www.w3.org/1999/xlink" x="0px" y="0px"
	 viewBox="0 0 373 185" style="enable-background:new 0 0 373 185;" xml:space="preserve">
<style type="text/css">
	.st0{fill:#FFFFFF;}
</style>
<g>
	<path class="st0" d="M364.8,83.7l-80-80c-4.9-4.9-12.8-4.9-17.7,0c-4.9,4.9-4.9,12.8,0,17.7L325.7,80H14.1
		C7.2,80,1.6,85.6,1.6,92.5c0,6.9,5.6,12.5,12.5,12.5h311.7l-58.7,58.7c-4.9,4.9-4.9,12.8,0,17.7c2.4,2.4,5.6,3.7,8.8,3.7
		s6.4-1.2,8.8-3.7l80-80C369.6,96.5,369.6,88.5,364.8,83.7z"/>
</g>
</svg>
