<?xml version="1.0" encoding="utf-8"?>
<!-- Generator: Adobe Illustrator 23.0.5, SVG Export Plug-In . SVG Version: 6.00 Build 0)  -->
<svg version="1.1" id="Capa_1" xmlns="http://www.w3.org/2000/svg" xmlns:xlink="http://www.w3.org/1999/xlink" x="0px" y="0px"
	 viewBox="0 0 88.3 114.4" style="enable-background:new 0 0 88.3 114.4;" xml:space="preserve">
<style type="text/css">
	.st0{fill:#A6C633;}
	.st1{fill:#E8E7D5;}
	.st2{fill:#FDFBE6;}
	.st3{fill:#2E3239;}
	.st4{fill:#C3C3B4;}
	.st5{fill:#429FD9;}
	.st6{enable-background:new    ;}
	.st7{fill:none;}
	.st8{fill:#CBE9FC;}
	.st9{fill:#5BBDEC;}
	.st10{fill:#432918;}
	.st11{fill:#FFFFFF;}
	.st12{opacity:0.5;}
</style>
<rect x="26.4" y="17.8" class="st0" width="62" height="78.8"/>
<polygon class="st0" points="9.1,110.4 0,114.4 0,0 9.1,4 "/>
<rect x="3.6" y="1.8" class="st1" width="14" height="110.7"/>
<polygon class="st2" points="39.5,94.9 17.6,112.6 17.6,1.8 39.5,19.6 "/>
<polygon class="st3" points="36.4,91.2 20.7,103.9 20.7,10.3 36.4,23 "/>
<rect x="39.5" y="19.5" class="st4" width="47.2" height="75.4"/>
<rect x="39.5" y="19.5" class="st1" width="45.6" height="75.4"/>
<g>
	<g>
		<path class="st5" d="M49.9,22.1c-12.3,0-23,6.3-29.2,15.9v37.4c6.2,9.6,16.9,15.9,29.2,15.9c19.2,0,34.7-15.5,34.7-34.6
			C84.6,37.6,69.1,22.1,49.9,22.1z"/>
	</g>
	<g class="st6">
		<g>
			<path class="st7" d="M66.3,26.2c0.3,0.1,0.5,0.3,0.8,0.4C66.9,26.5,66.6,26.3,66.3,26.2z"/>
			<path class="st7" d="M84.6,53.7c-0.1-0.9-0.2-2.1-0.4-3c-0.3-1.6-0.8-3.7-1.4-5.3c-0.3-0.9-0.7-2-1.1-2.8
				c-0.3-0.7-0.8-1.7-1.2-2.4c-0.4-0.8-1.1-1.8-1.6-2.6c-0.5-0.8-1.3-1.9-1.9-2.6c-1-1.2-2.4-2.7-3.5-3.7c-0.7-0.7-1.7-1.5-2.5-2.1
				c-3.3-2.4-3.9-2.6-3.9-2.6c-0.3-0.2-0.5-0.3-0.8-0.4c0,0,0,0,0,0c-0.1,0-0.1-0.1-0.2-0.1c0,0,0,0,0,0c-2.1-1.1-4.4-1.9-6.8-2.4
				c2.4,0.5,4.7,1.3,6.8,2.4c-0.6-0.3-1.2-0.6-1.7-0.9c-1-0.4-2-0.9-3.5-1.4c-0.5-0.2-1.1-0.3-1.5-0.5c-0.7-0.2-1.6-0.4-2.3-0.6
				c0,0-1.2-0.3-2.9-0.5c-4.5-0.6-9.1-0.2-13.5,1c-0.8,0.2-1.8,0.5-2.6,0.8c-0.5,0.2-1.1,0.4-1.5,0.6c-0.5,0.2-1.3,0.6-1.8,0.8
				c-0.5,0.3-1.3,0.6-1.8,0.9c-0.8,0.5-1.9,1.2-2.7,1.7c-0.6,0.4-1.4,1-1.9,1.4c-0.7,0.6-1.6,1.4-2.3,2c-1.1,1-2.4,2.6-3.4,3.8
				c0,0-0.9,1.1-1.9,2.7v37.4c0.4,0.7,1,1.4,1.4,2c0.6,0.8,1.4,1.8,2.1,2.6c1,1.1,2.5,2.5,3.7,3.5c0.9,0.7,2.1,1.6,3,2.2
				c0.6,0.4,1.4,0.9,2,1.2c0.1,0.1,2.2,1.3,4.8,2.2c0.7,0.3,2.7,1,5.3,1.6c2.2,0.5,4.1,0.6,5.3,0.7c1.4,0.1,2.2,0,3,0
				c0.6,0,1.8-0.1,2.5-0.2c1.1-0.1,1.5-0.2,2.8-0.4c0.7-0.1,1.7-0.4,2.5-0.6c0.8-0.2,1.8-0.5,2.5-0.8c1.7-0.6,1.7-0.6,3.4-1.4
				c1.1-0.5,3-1.5,4.5-2.6c0.6-0.4,1.4-0.9,1.9-1.4c0.7-0.6,1.7-1.3,2.3-2c1.1-1.1,2.5-2.6,3.4-3.7c0.6-0.7,1.3-1.7,1.8-2.5
				c0.5-0.7,1.1-1.7,1.5-2.5c0.7-1.4,1.6-3.4,2.2-4.9c0.3-0.8,0.7-2,0.9-2.9c0.3-1,0.6-2.3,0.7-3.3c0.2-1.7,0.4-3.9,0.5-5.6
				C84.7,55.9,84.7,54.7,84.6,53.7z"/>
		</g>
		<g>
			<path class="st8" d="M66.5,26.3c0.1,0.1,0.2,0.1,0.3,0.2c0,0,0,0,0,0C66.7,26.4,66.6,26.3,66.5,26.3z"/>
			<g>
				<g>
					<path class="st9" d="M77.5,47.5c-0.5,0-1-0.4-1.2-0.9l0,0c0-0.1,0-0.1,0-0.2c0,0,0,0,0,0c-0.1-0.7,0.4-1.2,1.1-1.3
						c0,0,0.1,0,0.1,0c0.6,0,1.1,0.4,1.2,1.1c0,0,0,0,0,0c0.1,0.6-0.3,1.2-1,1.3C77.7,47.5,77.6,47.5,77.5,47.5z"/>
					<path class="st10" d="M77.5,46.3C77.5,46.3,77.5,46.3,77.5,46.3C77.5,46.3,77.5,46.3,77.5,46.3 M77.5,46.3
						C77.5,46.3,77.5,46.3,77.5,46.3L77.5,46.3C77.5,46.3,77.5,46.3,77.5,46.3 M77.5,43.9c-0.1,0-0.2,0-0.3,0
						c-1.3,0.1-2.3,1.3-2.1,2.6c0,0.1,0,0.2,0.1,0.3c0.3,1.1,1.2,1.8,2.3,1.8c0.1,0,0.2,0,0.4,0c1.2-0.2,2.1-1.3,2-2.5
						c0-0.1,0-0.1,0-0.2C79.7,44.7,78.7,43.9,77.5,43.9L77.5,43.9z"/>
				</g>
			</g>
			<path class="st8" d="M84.7,56.8c0,0.4,0,0.9,0,1.3C84.7,57.6,84.7,57.2,84.7,56.8z"/>
			<path class="st8" d="M84.7,56.6c0,0.1,0,0.1,0,0.2C84.7,56.7,84.7,56.6,84.7,56.6z"/>
			<path class="st8" d="M39.8,23.6C39.8,23.6,39.8,23.6,39.8,23.6C39.8,23.6,39.8,23.6,39.8,23.6L39.8,23.6z"/>
		</g>
		<g>
			<g>
				<path class="st11" d="M27.3,30.7c0.1-0.1,0.3-0.1,0.4-0.2c-4.3,5.4-5.9,7.3-7,9.3v12.6c0.1-0.2,0.3-0.5,0.4-0.8l0.6,0.3l0,0.3
					l0.4,0.2l0.2,0l0.3-0.5l0.3-0.2c0.1,0.1,0.3,0.1,0.4,0.2c0.6,1.1,0.4,2.3,0.9,3.4c0,0,0.1,0.1,0.1,0.1c1.3-1.2,0.5-3.5,2.2-4.6
					l4.3-4.3c0.6-0.8,0.6-0.8,1.1-0.9c0.2,0.1,0.3,0.4,0.4,0.6l0.4-0.3l0.6-0.3l0.7-0.3l0.5-0.1l0.3-0.4l-0.5,0l-0.3,0L34,44.6
					l-0.6-0.2l0-0.4l0-0.2c0.4-0.3,0.5-0.4,0.4-1c-0.2,0-0.6,0.1-0.8,0.2l-0.5,0.2c-0.2-0.1-0.4-0.2-0.6-0.3
					c0.1-0.1,0.1-0.2,0.2-0.3c0.2,0,0.5,0.1,0.7,0.1c1-0.7,1-0.7,2.9-0.2l0.4-0.1l1-0.4l0.5-1.2l0-0.2l0.2-0.6l-0.7-0.3L37,38.8
					l0.4-0.9L37.2,37c0.1-0.2,0.1-0.5,0.2-0.7c-0.5,0.4-0.6,1.2-1.5,1.3c-0.1-0.1-0.1-0.2-0.2-0.3c0.5-1,0.5-1,0.5-1.5
					c0,0,0,0,0.1-0.1c0.1-0.3,0.2-0.5-0.3-0.9c0-0.2,0.1-0.5,0.3-0.7L36,34.1l-0.2,0.2c-0.9,1.4-2.1,2.7-2.9,4.2l-0.4,0.2L32,38.7
					l-0.1,0.1l-1.1,1.6l-0.5,0.4l-0.1-0.2c0-0.7,0-0.7,0.9-2.3c-0.2-0.3-0.6-0.4-0.8-0.8c0.1-0.2,0.2-0.5,0.2-0.7
					c-0.2-0.1-0.4-0.2-0.6-0.3c0.2-0.4,0.2-0.4,0.7-0.8c0-0.1-0.1-0.2-0.2-0.3c0,0,1-1,1.7-1.5l0.4-0.2c0.6-0.2,0.6-0.2,0.6-0.8
					c0.8,0.2,0.8,0.2,2.1-0.5l0.5-0.5l-0.3,0.3L34.8,33l-0.3,0.3l-0.2,0.3l-0.1,0.2l0,0.1l0.5-0.3c-0.2,0.3-0.4,0.4-0.5,0.7l0.3-0.2
					c0.1,0,0.2,0,0.2,0.1l0.1,0l0-0.3l0.6,0l0.2-0.2l-0.1-0.2c-0.1,0-0.1-0.1-0.2-0.1c0.3-0.3,0.4-0.4,0.6-0.9l0-0.1l0.2-0.2l0.3,0
					l0.3-0.1l0.5-0.6L38,31l0-0.1l0-0.3l-0.1,0l-0.7,0.6c-0.3,0.1-0.7,0.2-0.9,0.4c0.2-0.4,0.6-0.7,0.7-1.1
					c-0.1-0.1-0.1-0.2-0.2-0.3c0.1,0,0.1,0,0.2,0h0c1.3-1.2,1.3-1.2,1.9-1.4c0,0,0,0,0,0c0,0,0,0,0,0c0,0,0,0,0,0c0,0,0,0,0,0
					c0,0,0,0,0,0c0,0,0,0,0,0c0,0,0,0,0,0c0,0,0,0,0,0L39,28.9l0.2-0.1l0.4-0.3l0.3-0.2l-0.1-0.1l0-0.1c0.7-0.5,0.7-0.5,0.8-0.7
					c0,0,0,0-1.8,1c-0.9,0.7-0.9,0.7-1.2,0.8c0.1-0.1,0.2-0.1,0.4-0.2c0.5-0.5,0.5-0.5,1.1-0.8c0-0.1,0-0.2,0-0.4
					c-0.5,0.1-0.5,0.1-1,0.4l-0.4,0.2c-0.2,0.2-0.4,0.5-0.5,0.7L37,29.4l-0.3,0.3l-0.3,0.1l-0.1,0c-0.2,0.1-0.5,0.2-0.7,0.3
					c0,0,0,0,0,0c0,0,0,0,0,0c0,0,0,0-0.1,0c0,0,0,0-0.1,0.1c0,0,0,0-0.1,0.1c0,0,0,0-0.1,0c0,0,0,0,0,0c0,0,0,0,0,0l-0.3,0.1
					l-0.4-0.2l0.1-0.4c0.1-0.1,0.1-0.1,0.2-0.2c0,0.1,0.1,0.2,0.1,0.3c0.1,0,0.2-0.1,0.3-0.1l0.3-0.1l0.3-0.2l0.2,0.1l0.6-0.3
					l-0.1-0.3c-0.1,0-0.2,0-0.2,0c0.6-0.4,0.6-0.4,0.9-0.7l0.4-0.3c0.1-0.1,0.2-0.3,0.3-0.4c-0.2,0.1-0.5,0.2-0.7,0.3
					c-0.2,0.1-0.4,0.2-0.6,0.3c0.2-0.2,0.4-0.4,0.6-0.5c0-0.1,0-0.3,0-0.4l0.3-0.2l0.3-0.1l0.1-0.1c0,0-0.1-0.1-0.1-0.1l0.1-0.1
					l-0.3-0.2l-0.2,0.1l-0.5,0.2l-0.3,0.1l-0.3,0.1l-0.4,0.1l-0.4,0.2l0.1,0.1l-0.2,0.1l-0.5,0.3l0,0l0.6-0.2l0.1,0l0.6-0.3
					l-0.8,0.6l-0.7,0.5c-0.1,0.1-0.2,0.1-0.3,0.2L34,29.5l0.3,0.4c-0.2,0.1-0.5,0.2-0.7,0.3c0-0.1-0.1-0.2-0.1-0.3
					c-0.1,0-0.3,0.1-0.4,0.1c0.6-0.5,0.6-0.5,1.1-1.4c-0.1,0-0.2,0-0.3,0l0.3-0.2c0-0.1,0-0.1,0-0.2c0.1-0.1,0.2-0.2,0.2-0.2
					c-0.1,0-0.3,0.1-0.4,0.1c0.1-0.1,0.2-0.2,0.2-0.2C34,27.9,33.8,28,33.5,28c-0.1-0.1-0.2-0.2-0.3-0.2c0,0,1-0.9,1.4-1.7
					c-0.5,0.1-2.4,0.6-5.8,3.1c-0.7,0.6-1.6,1.3-2.3,1.9l-0.1,0.1c0.7-0.6,0.9-0.7,1.2-0.9C27.5,30.5,27.4,30.6,27.3,30.7z
					 M36.8,30.1c-0.4,0.1-0.8,0.3-1.8,1C35.2,30.8,35.8,30.2,36.8,30.1z"/>
				<path class="st11" d="M39.8,73.5L39.8,73.5c0,0-2.2-1.2-4-1.6c-0.5-3.4-3.8-4.5-5.6-6.8c-0.2,0-0.5,0.1-0.6,0.2
					c-0.3-0.1-0.5-0.1-0.8-0.2l-0.5-0.2l-0.4-0.7l-0.7,0L27,64.5l-0.2-0.9l-0.2-0.1L26.5,64l-0.5-0.1l-0.5,0.4L25,64.9l-0.3-0.2
					l-0.3-0.3l-0.6,0l-0.6-0.3c-0.7-1.4,0.2-3.9-1.9-4.3l0.2-0.7l0.2-0.4l0.2-0.6c0-0.1,0-0.2,0-0.3l0.1-0.3l0.2-0.2
					c0-0.5,0.1-1-0.9-0.9c-0.2,0.3-0.2,0.3-0.4,1.2L20.8,58l-0.1,0v2.3c0.5,0.6,0.8,1,0.8,1c0.3,1.1,0.9,2.1,1.2,3.1
					c0.1,0.2,0.1,0.4,0.2,0.6c0.1,0,0.2,0.1,0.3,0.1c0.2,0,0.4,0,0.6,0c0-0.1,0.1-0.2,0.2-0.3l0.2-0.1l0.2,0.2l0.1,0.3
					c0.7,1.6-0.5,3.1-0.3,4.7c0.3,0.6,0.3,0.6,0.7,2.4l0.5,0.7c0.4,1.1,0.4,1.1,1.2,2c3.6,4.6,3.6,4.6,4.5,6.5l0.5,0.8
					c0.1,0.2,0.3,0.4,0.4,0.6l0.2,0.4c2.7,5,7.6,6.5,9.2,6.9l0.3,0.1l-0.5-0.2l0.2,0c-0.3-0.1-0.3-0.1-1-0.4
					c-2.4-0.9-2.8-1.8-3.4-3.1c0.3,0,0.6,0,0.8-0.1c0-0.3-0.2-0.6-0.3-0.8c0.1,0,0.2,0,0.3,0c0.6-0.9,0.3-2.1,1-3
					c0.4-0.5,0.4-0.5,1.8-0.7c0-0.2,0.1-0.5,0.2-0.7c0.1,0,0.2-0.1,0.3-0.1l0.1-1c0,0,0,0,0,0c0,0,0,0,0-0.1c0,0,0,0,0-0.1
					c0,0,0,0,0-0.1c0,0,0,0,0-0.1c0,0,0,0,0-0.1c0,0,0,0,0,0c0,0,0,0,0,0c-0.2-1.5,1.1-2.4,1.3-3.8C42.6,75.7,42.7,75.3,39.8,73.5z"
					/>
			</g>
			<path class="st11" d="M40.2,33.4l-0.5,0.3c-0.1,0.2-0.2,0.3-0.3,0.5L39.2,34l0-0.4l0-0.3l-0.1-0.2l-0.4,0.4l0,0.3l0.2,0.2
				c-0.3,0.3-0.3,0.3-0.5,0.6c0,0,0,0.1,0,0.1l0,0.2l-0.2,0.1l-0.2,0.5l-0.1-0.1l0.1-0.5c-0.3,0-0.5,0-0.5,1c0,0-0.1,0-0.1,0
				l-0.3-0.3c-0.3-0.2-0.4-0.3-0.4-0.3c0-0.1,0-0.1,0-0.6c0-0.3-0.1-0.6-0.1-0.9l-0.4,0c0-0.5,0.3-0.8,0.4-0.9c0.3-0.2,0.7,0,1-0.1
				c0.3-0.4,0.8-0.6,1.1-1.1c0.2-0.3,0.3-1.3,0.3-1.3l-0.6,0.2l0-0.5l-0.6,0.1l-0.2-0.1c0.1-0.8,2-1.9,2.6-1.8c0,0,0,0,0,0
				c-0.1,0.1-0.3,0.2-0.4,0.2l-0.2,0L39.5,29c-0.3,0.4-1,0.8-1,0.9c0.2,0,0.4-0.2,0.6-0.4c0.4-0.3,1.6-1.2,2.2-0.4
				c-0.1,0.1-0.2,0.2-0.3,0.2l-0.2,0l-0.3,0l-1.1,0.6l0,0.1c0.9-0.3,0.9-0.3,1.1-0.4c0,0.1,0.1,0.3,0.1,0.4
				c-0.3,0.5-0.4,0.9-0.3,1.2c0,0.1,0,0.2-0.5,1c0.2,0.2,0.5,0.2,0.5,0.5C40.5,32.8,40.5,33,40.2,33.4"/>
			<path class="st11" d="M38.1,32.2c-0.1,0-0.2,0-0.2-0.1l0.2-0.5l0.3-0.1c0.1,0,0.2,0.1,0.3,0.1l-0.1,0.2L38.1,32.2"/>
			<path class="st11" d="M39.1,27.4l-0.2,0l-0.2-0.1l-0.6,0.2l0.1-0.2l0.4-0.1l-0.2,0l0.3-0.3l0.9-0.3c0,0,0.1,0.1,0.1,0.1l-0.3,0.2
				c-0.2,0.1-0.3,0.2-0.3,0.2c0.1,0.1,0.2,0,1.3-0.6c0,0,0.1,0.1,0.1,0.1L39.8,27l0.1,0.1l-0.1,0.1l-0.4,0.1l-0.1,0.2L39.1,27.4"/>
			<path class="st11" d="M37.5,44.3c-0.2,0.3-0.4,0.9-0.6,1c-0.2,0.1-0.5,0-0.5,0c-0.1-0.1-0.3,0-0.5,0c-0.1-0.3-0.1-0.3,0.8-0.9
				l-0.8,0L35,44l1-0.6c0.1-0.2,0.1-0.4,0.2-0.6l0.9-0.4l-0.2,0.8l0.4,0.5l0.1,0.4L37.5,44.3C37.6,44.2,37.5,44.2,37.5,44.3"/>
			<path class="st11" d="M40.1,26.2l-0.3,0l-0.3,0l-0.5,0.2l-0.3,0l0-0.2l0.3-0.2c0.3,0,0.3,0,1.7-0.4L40.8,26L40.1,26.2"/>
			<path class="st11" d="M42,25.9C42,25.9,42,25.9,42,25.9C41.9,25.9,41.9,25.9,42,25.9c-0.1,0-0.1,0.1-0.1,0.1c0,0,0,0-0.1,0
				c0,0,0,0-0.1,0c0,0,0,0-0.1,0c0,0,0,0,0,0c0,0-0.1,0-0.1,0c-0.1,0.1-0.3,0.1-0.4,0.1c-0.1,0-0.2,0.1-0.3,0.1c-0.1,0-0.1,0-0.1,0
				c0,0,0,0,0,0c0.1-0.2,0.9-0.5,0.9-0.5C41.7,25.8,41.9,25.9,42,25.9C42,25.9,42,25.9,42,25.9"/>
			<path class="st11" d="M42.4,26.3c-0.1,0-0.3,0.1-0.4,0.1c-0.1,0-0.1,0-0.1,0c0,0,0,0,0.2-0.2c0.1-0.1,0.2-0.2,0.2-0.2
				c0.1-0.1,0.3-0.2,0.4-0.2l0.3,0l-0.5,0.3c0,0,0.1,0,0.1,0l-0.1,0.1L42.4,26.3C42.4,26.3,42.4,26.3,42.4,26.3"/>
			<path class="st11" d="M47.3,25.4l-0.1-0.1L47,25.4c0,0,0,0,0,0c-0.1,0.1-0.1,0.1-0.2,0.2c0,0-0.1,0-0.1,0l-0.4,0.2
				c-0.3,0.1-0.5,0.4-0.8,0.4c-0.1,0-0.2,0-0.3-0.1c-0.2-0.1-0.4,0.1-0.6,0.1l0,0.3L43.8,27c-0.1,0-0.2,0-0.2-0.1L43.3,27l-0.2,0.3
				l-0.4,0.2l0.1-0.2l-0.3,0c-0.2,0-0.4-0.1-0.6-0.2c-0.5,0.2-0.5,0.2-0.6,0.4c0.1,0.1,0.2,0.1,0.2,0.2c0.3,0,0.5-0.1,1-0.2l0,0.2
				c-1.1,0.7-1.1,0.7-1.4,0.8c-0.1-0.1-0.3-0.2-0.5-0.3c-0.1,0-0.2-0.1-0.3-0.1l0.1-0.1c0.3-0.2,0.5-0.4,0.8-0.6
				c0-0.1,0.1-0.1,0.1-0.2c-0.1,0-0.1,0-0.3,0c0,0,0.1-0.1,0.2-0.2l0.5-0.3c0.5-0.2,0.9-0.6,1.5-0.8c-0.1,0.1-0.2,0.2-0.4,0.3
				l-0.4,0.3l0-0.1l-0.2,0L42,26.8L41.8,27l0.3,0l0.4,0.1c0.2-0.1,0.4-0.1,0.6-0.2c0.1,0,0.1,0,0.5-0.4l0.4-0.1
				c0.1-0.1,0.3-0.2,0.4-0.3l0-0.1l-0.4,0.1l-0.3,0.1c-0.5,0.4-0.6,0.4-0.7,0.3c0-0.1,0-0.1,0.1-0.3l0.2-0.1l0.4-0.2l0.1-0.1
				l0.3-0.2l0.5-0.2l0.1,0l0.3-0.1c0,0,0,0,0.1,0l-0.2,0.2L44.3,26l0.3-0.1l0.3,0l-0.1,0.2l0.4-0.3l0.2-0.2c0,0-0.1,0-0.1,0l0.3-0.2
				l-0.2-0.1l0.3-0.2l0.3-0.2l0.1,0l-0.2,0.1l0.1,0L46,25l0.2,0l0.4-0.2l0.1,0L46.6,25l0.5-0.2l0.4-0.1l-0.1,0.2c0.1,0,0.2,0,0.3,0
				l0,0.1l-0.1,0.3L47.3,25.4"/>
			<path class="st11" d="M26,59.1c-0.7-0.3-0.8-0.4-1-0.6c0-0.1,0-0.2,0-0.3l-0.6-0.5l-0.6-0.6l-0.3-0.3c-0.2,0.3-0.3,0.3-0.4,0
				c0,0,0-0.3,0.4-0.4c0.1,0,0.1,0,0.9,0l0.6,0.3l0.6,0.8c0,0,0,0,0.7,1.3C26.1,59,26.1,59.1,26,59.1"/>
			<path class="st11" d="M28.9,60.7c-0.1,0.1-0.2,0.1-0.5,0c-0.3-0.1-0.5-0.2-0.8-0.2c-0.2,0-0.2,0.2-0.4,0.2c0,0-1.1-0.4-1.2-0.7
				c0.1-0.1,0.6-0.5,0.6-0.5c0.1,0,0.5,0.1,0.5,0.1c0.2,0,0.6,0.2,0.8,0.3c0,0,0.1,0.1,0.1,0.1c0.1,0.1,0.2,0.2,0.3,0.3
				c0.1,0.1,0.3,0.2,0.4,0.3C28.8,60.5,28.9,60.6,28.9,60.7"/>
			<polyline class="st11" points="25.4,60.3 25,60 24.8,59.7 25.5,60 25.4,60.3 			"/>
			<path class="st11" d="M50.5,28.2c0,0,0,0.1-0.1,0.1c0,0,0,0-0.1,0c-0.1,0-0.1,0.1-0.2,0.2l0.3,0.4c-0.1,0-0.3,0-0.4,0l0.2,0.3
				c0,0.2,0.1,0.5,0,0.7c-0.1,0.2-0.5,0.2-0.6,0.4c-0.3,0.4,0.2,0.7,0.1,1.1c-0.1,0.2-0.1,0.2-0.3,0.2c-0.1-0.1-0.6-0.6-0.6-0.1
				c0,0.3,0.5,0.7,0.2,1c-0.7,0.6-1.6,0.5-2.3,0.9l-0.7,0.3l-0.1,0.7l-0.3,0.2c-0.1-0.3-0.3-0.2-1.2,0.9c-0.1,0.2-0.4,0.2-0.6,0.3
				c-0.2,0.4-0.4,1-1.2,1.5c0-0.1-0.1-0.2-0.1-0.3c-0.2,0-0.4,0-0.6-0.1c-0.2,0-0.4,0-0.6-0.1c0.5-1.1,0.3-2.4,0.9-3.6
				c0.2-0.4,0.6-0.7,0.7-1.2c0.1-0.2,0-0.5,0.1-0.7c0.1-0.3,0.4-0.5,0.5-0.8c0.3-0.8,1.2-1.2,1.2-2.1c-0.1-0.1-0.1-0.3-0.2-0.4
				c-0.2-0.1-0.4,0-0.5-0.1c0.1-0.1,0.2-0.2,0.3-0.3c-0.1,0-0.2,0-0.3,0l0.3-0.3l0.1-0.2l0.3-0.2l0.5-0.4c0,0.1,0,0.2,0,0.3
				c0.1,0,0.1,0,1.3-0.8c-0.3,0.1-0.3,0.1-0.4,0.1c0.2-0.2,0.2-0.2,2.2-0.9c0,0,0,0,0.1,0c0,0.1,0,0.1-0.1,0.2
				c0.1-0.1,0.2-0.1,0.3-0.2l0.3-0.3l0,0.1l0.2-0.2c0.1,0,0.3,0,0.4,0l0.1,0.2l0.3-0.1c0,0.2,0.3,0.4,0.2,0.6c-0.1,0-0.1,0-0.2,0
				c-0.1,0.1-0.1,0.1-0.2,0.4c0.2-0.1,0.2-0.1,0.3-0.1c0,0.2-0.2,0.4-0.2,0.6c0,0.3,0.2,0.3,0.3,0.3c0,0,0.1,0.1,0.1,0.1
				c-0.1,0.6-0.1,0.6,0.1,0.8C50.5,27.9,50.5,28.2,50.5,28.2"/>
			<path class="st11" d="M67.1,26.6c2.3,1.4,3.8,2.3,6.4,4.7c2.3,2.3,2.5,2.5,3.9,4.2c2,2.8,2.1,2.9,3.1,4.7
				c1.6,3.1,1.6,3.3,2.3,5.2c1,3.4,1.1,3.5,1.4,5.6c0.1,1,0.3,2.2,0.4,3.2l0,0.2l0,0.2c-0.1-1.6-0.1-1.6-0.5-3.1l0,0.3l-0.1,0.3
				c0.4,5.2-0.3,8.9-0.3,8.9c-0.3-1.3-0.4-2.7-0.6-4.1c-0.1-1.2-0.1-1.2-1.6-3.6c-0.1,0-0.3,0-0.5,0c-0.2,0.3-0.2,0.3-1.2,0.6
				c-0.2-0.1-0.5-0.3-0.6-0.5c-0.1,0-0.2,0.1-0.3,0.1c-0.6-0.3-1-1-1.8-1c-0.2-0.2-0.4-0.5-0.6-0.7l0.2,0.9l0.4,0.5l0.9,1.1l0,0.8
				c0.5-0.2,0.8-0.7,1.2-1l0.5,0.7l0.4,0c0.2,1.4,0.2,1.4-0.1,2.5c-0.1,1.1-0.1,1.1-1,2.2L78.8,60l-2.1,1.7c0,0-4.1-6.8-4.1-7.5
				c-0.1,0.1-0.2,0.2-0.3,0.2c0.9,2.7,2.4,5.2,3.4,7.9c0.2,0,0.6,0,0.8,0c-0.2,0.9-0.2,0.9,0.1,1.4c0.9-0.2,1.3-1.1,2.1-1.4
				c0.2,0.2,0.4,0.4,0.1,1.1l-4,7.5c-1.1,1.9-0.5,4.2-1.7,6c-0.1,0.1-6,8.6-10.1,8.7c-0.1,0-0.3,0-0.4,0l0.3-6.4c0,0,1-2.4,0.9-2.6
				c-0.1-0.4-0.1-0.6,0-0.7c-0.1-1.8-1.5-3.4-1-5.4c-0.2,0-0.2,0-2.1-1.2c-4.3,1.2-4.3,1.2-6.1,1.3c-1.5-1.7-4.3-2.3-4.5-5.2
				l0.5-5.5c0.8-2.1,2.3-3.2,3.1-3.8c-0.9-1.7,1-2.5,1.4-3.7c0.1,0,6.3-1.4,7.4-0.9c0.7,1.8,0.7,1.8,2.5,2.6l1.2,0.1
				c0.6-1.4,0.6-1.4,4.3-1c0.1-0.2,0.2-0.4,0.4-0.5l0.5,0c0.8-1.8,0.8-1.8,0.3-3.2c-0.4,0.4-0.4,0.4-0.9,0.8c-0.1,0-0.1,0-0.1,0
				C69.3,50,69.3,50,68.9,50l-0.5-0.4l0-0.5c-0.1-0.2-0.1-0.4-0.2-0.7l0.1-0.4l0.9-0.5c0.8-1.1,2.2-0.7,3.3-1.2l-0.2-0.4l-0.6-0.5
				l-0.6,0.1l-0.2-0.3l-1-0.4L69.6,45l-0.1,0.4l-0.3-0.8l-0.6-0.6L68,44.1l0,1.8l-0.2,0.6l0.1,0.7L67.9,48l-0.3,0.3l-1.1,0.1
				c0.2,0.7,0.9,0.9,1.3,1.3c-0.5,0.6-0.5,0.6-0.6,0.9c-0.2-0.1-0.5-0.1-0.6-0.2l-0.1-0.5l-0.4-0.2l0-0.4l-0.4-0.2l-0.2-0.7
				c0,0-2.3-2.8-3.3-2.1c0.1,0.6,0.7,0.9,2.6,1.9l0.2,0.6l-0.4-0.1l0.1,1.2L64.3,50c-1.3-3.6-5.4-3.8-5.7-2.7c-1,3.5-1,3.5-3.2,4.6
				l-0.6-0.6l-0.6,0l-0.2-0.4l-0.3-0.5l0.2-0.9l0-0.5l-0.1-0.6l-0.1-0.7l0.3-0.3l0.8,0c0,0,0,0,1.8,0.1c0.2-0.2,0.2-0.6,0.3-0.8
				l-0.3-0.4c-0.1,0-0.2-0.1-0.3-0.1c-0.1-0.1-0.1-0.1-0.1-0.1c0,0,0,0,0,0c0,0,0,0,0-0.1c0,0,0,0,0-0.1c0,0,0,0,0-0.1c0,0,0,0,0,0
				c0,0,0,0,0,0c0,0,0,0,0,0l-0.4-0.3l-0.7-1l0.2-0.2c0.2,0,0.5,0,0.7,0c0.4-0.4,0.4-0.4,1.3-0.9l0.8-1.3c0.6-0.8,0.6-0.8,1.2-1
				c-0.3-2-0.3-2-0.3-2c0.1,0,0.2,0.1,0.3,0.1c0.2,0.4,0.4,0.9,0.6,1.3c1,0,1.8-0.4,2.8-0.5c0.1-0.6-0.3-1.2-0.3-1.8
				c0.1,0,0.3-0.1,0.4-0.1l0.4,0l-0.1-0.4c-0.2-0.3-0.2-0.6-0.3-0.9l-0.2,0c-0.5,0-0.5,0-0.9-0.4c-0.2-0.3-0.3-0.6-0.4-0.8
				c-0.2-0.5-0.2-0.5-0.1-1.3l-0.4-0.7l-0.4,0l0.3,0.7l-0.2,0.5c0,0,0,0,0.9,2.7c-0.1,0.1-0.2,0.2-0.2,0.2c0.2,1.6,0.2,1.6-0.5,1.9
				c-0.4-0.3-0.5-0.8-0.8-1.2l-0.2-0.4L59,37.8l-0.2,0.4l-0.9,0.2c-0.3-0.3-0.9-1.1-0.9-2.8c0.5-0.5,0.5-0.5,0.7-1.5
				c0.9-3.5,0.9-3.5,1.2-3.6l0.3-0.2l0.7,0.3c0.7,0.2,1.7,0.5,2.4,0.7l0.9,1l-0.1,0.3l-0.2,0.2l-0.3-0.1l-0.3-0.1
				c0.1,0.1,0.2,0.2,0.2,0.3l0.6,0.5c0.1,0,0.3-0.1,0.4-0.1c0.1-0.9,0.1-0.9-1.1-2.3c0.5,0,0.5,0,1.3,0.6c0-0.1,0-0.1-0.1-1
				c0.3-0.2,0.3-0.2,1-0.2c0-0.1,0-0.1-0.8-0.8c0.5-0.1,1,0.1,1.6,0.2c0,0,0-0.1,0.1-0.2c-0.8-0.1-1.4-0.7-1.5-0.9l-0.3-0.2
				l-0.6-0.5l-0.5-0.4l0.1,0l0.5,0.3c0.1,0,0.1,0,3,1.6c0.4,0.3,0.5,0.3,1.2,1c0-0.1,0-0.1-3.9-2.7l0.7,0.3l-0.1-0.2l0.2,0l0.5,0.1
				l0.4,0.1l-0.5-0.3l-0.2,0c-0.6-0.3-2.6-1.7-2.6-1.7c0-0.1,0.1-0.2,0.1-0.3c-0.3-0.2-0.6-0.3-0.9-0.5L60,25.1l-0.2-0.1l0.7,0.2
				l0.4,0.1l0.2-0.1c0.5,0,0.5,0,2.5,0.9c-0.2-0.1-0.3-0.3-0.5-0.5c0.1,0,0.3,0,0.4,0c-0.1-0.1-0.1-0.2-0.2-0.3c0.4,0,0.4,0,1.4,0.3
				c-0.3-0.3-0.3-0.3-1-0.6l-0.5-0.2L63,24.7C64.5,25.2,65.8,25.9,67.1,26.6"/>
			<path class="st11" d="M57,42.2c-0.1,0.2-0.3,0.6-1.7,1.6c-0.1,0.1-0.1,0.1-0.6,0c0-0.2,0-0.4,0-0.6l0.3-0.4l-0.2-0.6
				c0.1-0.6,0.1-0.9,0-1.3c-0.1-0.3-0.5-0.5-0.7-0.7l-0.4-0.6l0.5-0.9l0.7,0.1l0.4,0.7l0.4,0.9C56,40.9,56.5,41.5,57,42.2
				C57,42.1,57,42.1,57,42.2"/>
			<path class="st11" d="M54.2,41.6c0,0-0.1,1-0.3,1.2c-0.3,0.2-1.1,0.3-1.2,0.1c0,0,0-0.1,0-0.1c0-0.2,0-0.3,0-0.5
				c-0.1-0.2-0.2-0.4-0.3-0.7c0-0.2,0-0.3,0-0.3c0.1-0.2,0.3-0.2,0.4-0.2c0.3,0,0.4-0.1,0.6-0.5l0.2,0.1
				C54.2,41.3,54.2,41.5,54.2,41.6"/>
			<path class="st11" d="M51.2,34.9c0,0.2-0.4,0.5-0.5,0.6c0,0,0,0-0.1,0c-0.1,0-0.2,0-0.3,0.1C50,35.8,50,35.8,50,35.8
				c-0.1,0-0.3-0.1-0.4-0.2c0,0,0,0,0,0c-0.1-0.1-0.2-0.3-0.3-0.5c-0.1-0.2-0.4-0.3-0.5-0.5c0,0,0-0.1-0.1-0.1
				c-0.1-0.2,0-0.4,0.2-0.4c0.1,0,0.2,0.1,0.3,0.1c0.3,0.2,0.5,0.2,0.9,0.2c0.3,0,0.4-0.4,0.7-0.4c0.1,0,0.2,0.1,0.2,0.2
				c0,0,0,0,0,0c0,0.1,0,0.2,0,0.3C51,34.6,51.2,34.7,51.2,34.9"/>
			<path class="st11" d="M60,26.7c0.1,0.1,0.2,0.1,0.2,0.1c0.1,0.1,0,0.2,0.1,0.2c0.1,0.1,0.2,0.2,0.3,0.3c0,0,0,0.1,0.1,0.2
				c0,0.1,0.1,0.4,1.1,1.2c0.5,0.5,1,0.7,1.3,0.7c0.2,0,0.3,0.1,0.3,0.1c0.1,0.1,0.1,0.3,0,0.3c-0.1,0-0.2-0.1-0.2-0.1
				c0,0-1.6-0.9-1.7-1c-0.1-0.1-0.2-0.2-0.3-0.2c-0.2-0.2-0.3-0.3-0.5-0.5c-0.3-0.3-0.6-0.4-0.9-0.7c-0.1-0.1-0.2-0.1-0.1-0.2
				c0.1-0.1,0.2,0,0.3-0.1c0,0,0,0-0.1-0.2c-0.4-0.3-0.4-0.3-0.4-0.3c0,0,0,0,0,0C59.6,26.5,59.9,26.6,60,26.7"/>
			<path class="st11" d="M76.2,74.9c-0.4,1-0.6,1.4-0.9,1.8c-0.1,0.2-0.3,0.3-0.4,0.5c-0.2,0.3-0.3,0.6-0.5,0.9
				c-0.2,0.3-0.5,0.6-0.6,1c-0.2,0.4-0.2,0.4-0.3,0.5c0,0-1,1.2-1.1,0.7c-0.1-0.3,0.3-1.1,0.8-1.3c0.1,0,0.3-0.2,0.3-0.4
				c0-0.1,0-0.2,0-0.3c0.2-0.4,0.3-0.9,0.6-1.3c0.1-0.2,0.1-0.2,0.2-0.3c0.1-0.1,0.2-0.1,0.2-0.2c0.3-0.2,0.8-0.7,1.3-1.5
				c0.4-0.6,0.4-0.6,0.6-0.7L76.2,74.9C76.2,74.8,76.2,74.8,76.2,74.9"/>
			<path class="st11" d="M84,61.1c-0.1,0.7-0.2,0.7-0.2,0.8c0,0,0,0,0,0c0-0.1,0.1-2,0.2-2.1c0,0,0,0,0,0c0,0,0,0.1,0,0.1
				C84,60,84.1,60.7,84,61.1"/>
			<path class="st11" d="M41.6,89.9c0.1,0.1,0.1,0.1,0,0.1c0,0-0.1,0-0.1,0c0,0,0,0,0,0c-0.1,0-0.6-0.1-0.6-0.2c0,0,0,0,0.5,0.1
				c0,0,0,0,0,0c0,0,0,0,0.1,0C41.5,89.9,41.5,89.9,41.6,89.9C41.5,89.9,41.6,89.9,41.6,89.9"/>
		</g>
	</g>
	<g class="st12">
		<path class="st9" d="M76.8,34.8c0.2,0.3,0.4,0.5,0.6,0.7l0.2,0.2C77.3,35.4,77.1,35.1,76.8,34.8z M78.8,37.5l0.1,0.1
			c0,0,0.1,0.1,0.1,0.1C79,37.7,78.9,37.6,78.8,37.5z M84.5,53.3C84.5,53.3,84.5,53.3,84.5,53.3C84.5,53.3,84.5,53.3,84.5,53.3
			L84.5,53.3z"/>
	</g>
	<g class="st12">
		<path class="st5" d="M69.8,28.4c4.3,5.8,6.8,12.9,6.8,20.6c0,19.1-15.5,34.6-34.7,34.6c-7.4,0-14.2-2.3-19.9-6.2
			c6.3,8.5,16.5,14,27.9,14c19.2,0,34.7-15.5,34.7-34.6C84.6,45,78.8,34.6,69.8,28.4z"/>
	</g>
</g>
</svg>
