<?xml version="1.0" encoding="utf-8"?>
<!-- Generator: Adobe Illustrator 23.0.5, SVG Export Plug-In . SVG Version: 6.00 Build 0)  -->
<svg version="1.1" id="Слой_1" xmlns="http://www.w3.org/2000/svg" xmlns:xlink="http://www.w3.org/1999/xlink" x="0px" y="0px"
	 viewBox="0 0 546.3 486.4" style="enable-background:new 0 0 546.3 486.4;" xml:space="preserve">
<style type="text/css">
	.st0{fill:#FFFFFF;}
	.st1{fill:#B81E24;}
	.st2{fill:#333333;}
	.st3{fill:#221F1F;}
	.st4{fill:#B81D24;}
	.st5{fill:#E50914;}
	.st6{fill:#F5F5F1;}
	.st7{fill:none;stroke:#B81D24;stroke-width:24;stroke-miterlimit:10;}
	.st8{fill:#B81D24;stroke:#B81D24;stroke-width:25;stroke-miterlimit:10;}
	.st9{fill:none;stroke:#A6C632;stroke-width:32;stroke-miterlimit:10;}
	.st10{fill:#A6C632;}
</style>
<g>
	<g>
		<g>
			<path class="st9" d="M394.4,17.6c-27.8,0-53.3,8.8-75.7,26.2c-21.5,16.6-35.9,37.9-44.3,53.3c-8.4-15.4-22.8-36.6-44.3-53.3
				c-22.5-17.4-47.9-26.2-75.7-26.2c-77.5,0-136,63.4-136,147.5c0,90.9,72.9,153,183.4,247.1c18.8,16,40,34.1,62.1,53.4
				c2.9,2.5,6.7,4,10.5,4s7.6-1.4,10.5-4c22.1-19.3,43.3-37.4,62.1-53.4c110.4-94.1,183.4-156.3,183.4-247.1
				C530.4,81,472,17.6,394.4,17.6z"/>
		</g>
	</g>
</g>
</svg>
