<?xml version="1.0" encoding="utf-8"?>
<!-- Generator: Adobe Illustrator 23.0.5, SVG Export Plug-In . SVG Version: 6.00 Build 0)  -->
<svg version="1.1" id="Слой_1" xmlns="http://www.w3.org/2000/svg" xmlns:xlink="http://www.w3.org/1999/xlink" x="0px" y="0px"
	 viewBox="0 0 486 483.1" style="enable-background:new 0 0 486 483.1;" xml:space="preserve">
<style type="text/css">
	.st0{fill:none;stroke:#B81D24;stroke-width:24;stroke-miterlimit:10;}
	.st1{fill:#B81D24;stroke:#B81D24;stroke-width:25;stroke-miterlimit:10;}
	.st2{fill:#B81D24;}
</style>
<g>
	<g>
		<g id="account-box_1_">
			<path class="st0" d="M14,64.7v357c0,28,23,51,51,51h357c28,0,51-23,51-51v-357c0-28-23-51-51-51H65C37,13.7,14,36.6,14,64.7z
				 M320,166.7c0,43.4-33.1,76.5-76.5,76.5S167,210,167,166.7s33.1-76.5,76.5-76.5S320,123.3,320,166.7z M90.5,370.7
				c0-51,102-79,153-79s153,28,153,79v25.5h-306V370.7z"/>
		</g>
	</g>
</g>
<circle class="st1" cx="243.9" cy="164.9" r="75.5"/>
<path class="st2" d="M90.5,348.5L192,293.8l67-1.5l80.4,23.8l44.1,32.4l13,26.8v18.4c0,0-168.7,8.4-171,8.4s-135,0-135,0l-3.4-31.8
	L90.5,348.5z"/>
</svg>
